<?xml version="1.0" encoding="utf-8"?>
<!-- Generator: Adobe Illustrator 27.9.1, SVG Export Plug-In . SVG Version: 6.00 Build 0)  -->
<svg version="1.1" id="Calque_1" xmlns="http://www.w3.org/2000/svg" xmlns:xlink="http://www.w3.org/1999/xlink" x="0px" y="0px"
	 viewBox="0 0 1060.4 575.2" style="enable-background:new 0 0 1060.4 575.2;" xml:space="preserve">
<style type="text/css">
	.st0{fill:#0A2D82;}
</style>
<g>
	<path class="st0" d="M665.1,440c-32.7-28.9-77.5-44.8-125.9-44.8c-48.5,0-93.2,15.9-126,44.8c-34.1,30.1-52.9,72.7-52.9,119.9
		c0,6.6,5.4,12,12,12h99.3c6.6,0,12-5.4,12-12s-5.4-12-12-12h-86.9c2.8-35.7,18-66.7,44.4-90c28.4-25,67.5-38.8,110.1-38.8
		c19.2,0,37.7,2.8,54.8,8.2v120.6h-54.8c-6.6,0-12,5.4-12,12s5.4,12,12,12h166.9c6.6,0,12-5.4,12-12
		C718.1,512.7,699.3,470.1,665.1,440z M618,547.9V437c11.4,5.7,22,12.7,31.3,21c26.4,23.3,41.6,54.2,44.4,90H618z"/>
	<path class="st0" d="M415.1,143.9l2.8,70.7c-4.4,13.1-6.7,26.7-6.7,40.6c0,69.8,56.8,126.6,126.6,126.6S664.5,325,664.5,255.1
		c0-13.9-2.2-27.5-6.7-40.6l3.4-80.8c13.9-11.9,20.6-30,17.7-48.5c-3.6-22.8-22.1-40.8-45.1-43.8c-17.6-2.3-35.1,4.3-46.7,17.7
		c-6,6.9-14.5,10.8-23.4,10.8c-12.4,0-23.6-7.1-28-17.7c-6.7-16.4-19-30.2-34.5-38.9c-16.4-9.1-35-12-53.8-8.4
		c-31.3,6.1-56,31.3-61.6,62.8C380.7,96.8,392.1,126,415.1,143.9z M537.9,357.8c-56.6,0-102.7-46.1-102.7-102.7
		c0-9.1,1.2-18.1,3.5-26.8H637c2.4,8.7,3.5,17.7,3.5,26.8C640.5,311.8,594.5,357.8,537.9,357.8z M409.5,71.8
		c3.9-21.8,21-39.2,42.6-43.4c26.3-5.1,51.6,8.4,61.6,32.8c8.1,19.8,27.8,32.6,50.2,32.6c15.9,0,31-7,41.5-19.1
		c6.4-7.4,15.7-10.9,25.5-9.6c12.3,1.6,22.6,11.6,24.5,23.8c1.8,11.4-3,22.4-12.4,28.7c-3.2,2.1-5.1,5.6-5.3,9.4l-3.3,77.2H441.5
		l-2.7-67.3c-0.2-3.9-2.2-7.4-5.4-9.6C414.7,115.3,405.6,94,409.5,71.8z"/>
	<path class="st0" d="M494.3,188.5c6.6,0,12-5.4,12-12v-59.3c0-6.6-5.4-12-12-12s-12,5.4-12,12v59.3
		C482.3,183.2,487.6,188.5,494.3,188.5z"/>
	<path class="st0" d="M581.5,188.5c6.6,0,12-5.4,12-12v-59.3c0-6.6-5.4-12-12-12s-12,5.4-12,12v59.3
		C569.5,183.2,574.9,188.5,581.5,188.5z"/>
	<path class="st0" d="M563.2,471.1c6.6,0,12.1-5.4,12.1-12.1c0-6.7-5.4-12.1-12.1-12.1s-12,5.4-12,12.1
		C551.2,465.7,556.6,471.1,563.2,471.1z"/>
	<path class="st0" d="M563.2,526.1c6.6,0,12.1-5.4,12.1-12.1c0-6.7-5.4-12.1-12.1-12.1s-12,5.4-12,12.1
		C551.2,520.7,556.6,526.1,563.2,526.1z"/>
	<path class="st0" d="M537.9,188.5c6.6,0,12-5.4,12-12v-35.1c0-6.6-5.4-12-12-12s-12,5.4-12,12v35.1
		C525.9,183.2,531.3,188.5,537.9,188.5z"/>
	<path class="st0" d="M386.1,209v-3.8c0-16.8-12.7-30.4-28.4-30.4h-6.9c-2.5-23.1-12.4-45.2-28.4-63.3
		c-16.5-18.6-38.9-32.1-63.7-38.6l-1.6-9.1c-0.1-0.4-0.2-0.8-0.3-1.2c-2.1-7.5-9.7-12.8-18.3-12.8h-29c-8.5,0-16,5.2-18.2,12.6
		c-0.1,0.4-0.2,0.8-0.3,1.2l-1.7,9.2c-24.8,6.5-47.3,20-63.8,38.6c-16,18-25.9,40.1-28.5,63.3h-4c-15.8,0-28.6,13.8-28.6,30.7v3.6
		c0,16.9,12.8,30.6,28.5,30.6h3.4v13c0,70.3,57.2,127.6,127.6,127.6S351.5,323,351.5,252.6c0-4.3-0.2-8.7-0.7-13h6.7
		C373.3,239.6,386.1,225.9,386.1,209z M143.4,127.4c5.5-6.1,11.7-11.6,18.6-16.3v20.3c0,6.6,5.4,12,12,12s12-5.4,12-12V98.9
		c5.2-1.9,10.5-3.4,16-4.4c4.8-0.9,8.6-4.8,9.5-9.6l2.1-11.1h21l2,11.1c0.9,4.9,4.6,8.7,9.5,9.7c5.5,1.1,10.8,2.6,15.9,4.4v32.5
		c0,6.6,5.4,12,12,12s12-5.4,12-12v-20.3c6.9,4.7,13.2,10.1,18.6,16.3c12.3,13.8,19.8,30,22.2,47.3H133h-11.9
		C123.5,157.4,131.1,141.2,143.4,127.4z M327.5,252.6c0,57.1-46.5,103.6-103.6,103.6s-103.6-46.5-103.6-103.6v-13h0.5h131.1
		c6.6,0,12-5.4,12-12s-5.4-12-12-12H120.8H92.9c-2.2,0-4.6-2.7-4.6-6.6v-3.6c0-4,2.4-6.7,4.6-6.7h15.4H133h194h12.5h18.2
		c2.1,0,4.4,2.7,4.4,6.5v3.8c0,3.9-2.4,6.7-4.6,6.7h-42.5c-6.6,0-12,5.4-12,12s5.4,12,12,12h11.6
		C327.3,243.9,327.5,248.3,327.5,252.6z"/>
	<path class="st0" d="M344.6,432.8c-9.2-7.2-19.3-13.5-29.9-18.8c-6.8-3.3-13.8-6.3-21.1-8.8c-0.5-0.2-0.9-0.3-1.4-0.5
		c-20.9-7.1-43.6-10.8-66.9-10.8c0,0,0,0,0,0h0c0,0,0,0,0,0h0c0,0,0,0,0,0c0,0,0,0,0,0c-24.2,0-47.8,4-69.4,11.7
		c-0.5,0.1-1,0.3-1.4,0.5c-6.4,2.3-12.5,4.9-18.5,7.9c-27.3,13.5-50.1,33.5-65.8,57.8C53.5,497.7,45,527.3,45,559.9
		c0,6.6,5.4,12,12,12h265.2c6.6,0,12-5.4,12-12v-56c0-17.5-14.7-31.9-33.2-33v-36.9c1,0.5,2,0.9,3,1.4c9.2,4.5,17.9,10,25.8,16.2
		c2.2,1.7,4.8,2.5,7.4,2.5c3.6,0,7.1-1.6,9.5-4.6C350.7,444.4,349.8,436.9,344.6,432.8z M146.5,435.5c0.2-0.1,0.5-0.2,0.7-0.4V471
		c-18.5,1-33.2,15.4-33.2,33v44H69.4C73.3,498.6,100.9,458,146.5,435.5z M310.2,504v44H138v-44c0-4.9,5.2-9.1,11.4-9.1h149.5
		C305,494.9,310.2,499.1,310.2,504z M277,470.9H171.2v-45.2c17-5.2,35.3-7.9,54-7.9c17.9,0,35.4,2.5,51.8,7.2V470.9z"/>
	<path class="st0" d="M849.7,152.5c68.5,0,124.3,55.8,124.3,124.3V376c0,6.6,5.4,12,12,12s12-5.4,12-12v-99.2
		c0-81.8-66.5-148.3-148.3-148.3S701.4,195,701.4,276.8V376c0,6.6,5.4,12,12,12s12-5.4,12-12v-99.2
		C725.4,208.2,781.1,152.5,849.7,152.5z"/>
	<path class="st0" d="M821.5,185.4l0-1c0-4-2.1-7.8-5.5-10c-3.4-2.2-7.6-2.5-11.3-0.9c-40.7,17.9-67,58.1-67,102.5
		c0,61.7,50.2,111.9,111.9,111.9c61.7,0,111.9-50.2,111.9-111.9c0-31.4-34.3-52.5-85.4-52.5C843.5,223.5,821.5,208.2,821.5,185.4z
		 M937.6,276c0,48.5-39.5,88-88,88s-88-39.5-88-88c0-29.5,14.8-56.7,38.7-72.9c7.9,23.6,32.3,44.4,75.8,44.4
		C911.2,247.4,937.6,259.7,937.6,276z"/>
	<path class="st0" d="M994.7,469.9c10.9-9,15.8-24,11.2-38.2c-5.2-16-20.7-25.8-36.8-24.4c-3.5-15.8-17.6-27.6-34.4-27.7
		c0,0-0.1,0-0.1,0c-16.7,0-30.8,11.7-34.4,27.4c-16.2-4.2-33.1-6.3-50.4-6.3c0,0,0,0,0,0h0h0h0c0,0,0,0,0,0c0,0,0,0,0,0
		c-22.7,0-44.8,3.7-65.1,10.7c-0.5,0.1-0.9,0.3-1.4,0.5c-6.6,2.3-13,5-19.1,8.1c-7.4,3.7-14.5,7.8-21.2,12.4
		c-5.4,3.8-6.8,11.2-3,16.7c2.3,3.4,6.1,5.2,9.9,5.2c2.4,0,4.7-0.7,6.8-2.1c5.7-3.9,11.8-7.5,18.2-10.7c0.4-0.2,0.8-0.4,1.2-0.6V471
		c-18.5,1-33.2,15.4-33.2,33v55.9c0,0,0,0,0,0c0,0.4,0,0.8,0.1,1.2c0.2,2,0.9,3.8,1.9,5.4c0,0,0,0.1,0.1,0.1c0,0,0,0,0,0
		c0.2,0.3,0.4,0.6,0.7,0.9c0,0,0,0,0,0.1c0.1,0.1,0.2,0.2,0.3,0.4c0.2,0.2,0.3,0.3,0.5,0.5c0.1,0.1,0.3,0.3,0.4,0.4
		c1.9,1.7,4.2,2.8,6.8,3c0.4,0,0.8,0.1,1.2,0.1c0,0,0,0,0.1,0h196.1c0,0,0,0,0.1,0c0,0,0,0,0.1,0h59.7c6.6,0,12-5.4,12-12
		C1022.6,526.4,1013,495.6,994.7,469.9z M943.8,441.6C943.8,441.6,943.8,441.6,943.8,441.6c0.1,0,0.1,0.1,0.1,0.1
		c0.1,0,0.1,0.1,0.2,0.1c0.1,0.1,0.1,0.1,0.2,0.2c0,0,0,0,0,0c0,0,0,0,0.1,0c3.5,2.7,5.6,6.7,6.1,11.1c0,0,0,0,0,0
		c0.2,2.2,0,4.3-0.7,6.4c0,0,0,0,0,0c0,0,0,0,0,0l0,0.1c0,0,0,0.1,0,0.1l0,0.1c-0.6,1.6-1.4,3.2-2.4,4.5c-3,4-7.6,6.3-12.7,6.3
		c0,0,0,0,0,0l-0.3,0c0,0,0,0,0,0c-3.5,0-6.8-1.2-9.5-3.2c-2.6-1.9-4.5-4.6-5.5-7.6c0,0,0-0.1,0-0.1c0-0.1,0-0.1,0-0.2
		c0,0,0-0.1,0-0.1c0,0,0,0,0,0c0,0,0,0,0,0c-1.6-5-0.6-10.3,2.5-14.5c0.9-1.2,2-2.3,3.3-3.2c0,0,0,0,0,0c0,0,0,0,0,0
		c0,0,0.1-0.1,0.1-0.1c0,0,0.1-0.1,0.1-0.1c0,0,0.1,0,0.1-0.1c1.1-0.8,2.4-1.4,3.8-1.9c0,0,0,0,0,0
		C934,437.8,939.5,438.6,943.8,441.6z M897.8,431C897.8,431,897.8,431,897.8,431c0.9,0.1,1.7,0.3,2.5,0.5c0.4,0.1,0.8,0.3,1.2,0.5
		c-4.4,6.4-6.8,13.9-7,21.5c-0.4-0.1-0.9-0.2-1.3-0.3c-6-2-9.2-8.4-7.3-14.4C887.6,433.8,892.6,430.5,897.8,431z M899.8,484.9
		c0.3-1.8,1-3.4,2-4.9c0.3-0.3,0.5-0.7,0.8-1c2.2,2.8,4.7,5.4,7.6,7.6c3.3,2.5,6.9,4.4,10.7,5.8c-0.2,0.4-0.4,0.7-0.7,1.1
		c-3.7,5.1-10.9,6.2-15.9,2.5C900.8,493.4,899.1,489.1,899.8,484.9z M954.4,497.7C954.3,497.7,954.3,497.7,954.4,497.7
		c-1.7-0.5-4.1-1.7-5.9-4.2c-0.2-0.3-0.5-0.7-0.7-1.1c7.2-2.5,13.5-7.1,18.3-13.3c0.3,0.3,0.6,0.6,0.8,1c3.7,5.1,2.5,12.2-2.6,15.9
		C961.5,498.2,957.8,498.8,954.4,497.7z M983.1,439c1.9,6-1.4,12.4-7.4,14.4c-0.4,0.1-0.8,0.2-1.3,0.3c0-0.9-0.1-1.8-0.2-2.8
		c0,0,0,0,0,0c-0.6-6.8-3-13.3-6.8-18.8c0.4-0.2,0.8-0.3,1.2-0.5C974.7,429.7,981.2,433,983.1,439z M934.6,403.6
		C934.6,403.6,934.6,403.6,934.6,403.6c6.3,0,11.4,5.1,11.4,11.4c0,0.4,0,0.9-0.1,1.3c-7.3-2.2-15.2-2.3-22.6-0.1
		c-0.1-0.4-0.1-0.9-0.1-1.3C923.2,408.7,928.3,403.6,934.6,403.6z M849.7,424.7c5.4,0,10.7,0.3,16,0.7c-1,1.9-1.9,3.9-2.6,5.9
		c-4.9,14.9,0.7,30.8,12.8,39.6h-76.2v-39.3C815.5,427.1,832.4,424.7,849.7,424.7z M778,494.9h98.7c1.9,8,6.6,15.3,13.5,20.4
		c6.1,4.5,13.3,6.8,20.8,6.8c1.8,0,3.7-0.1,5.5-0.4c6.7-1,12.8-3.9,17.8-8.3c1.4,1.2,2.9,2.4,4.5,3.4v31.2H766.6v-44
		C766.6,499.1,771.8,494.9,778,494.9z M962.8,547.9v-26.1c5.6-0.8,10.9-2.9,15.6-6.3c3.8-2.7,6.8-6.1,9.2-9.8
		c5.7,13.1,9.3,27.2,10.5,42.2H962.8z"/>
</g>
<path class="st0" d="M580.4,290.7c-5.6-3.5-13-1.9-16.5,3.7c-0.1,0.1-7.6,11.2-26,11.2c-0.6,0-1.1,0-1.7,0
	c-16.9-0.6-24.1-10.9-24.4-11.3l0.1,0.2l0,0l0,0c-3.5-5.6-10.9-7.3-16.5-3.7c-5.6,3.5-7.3,10.9-3.7,16.5c0.3,0.5,3.9,6,11.4,11.5
	c7.5,5.5,18.9,10.8,34.8,10.8c31.7,0,45.7-21.4,46.2-22.3C587.7,301.7,586,294.3,580.4,290.7z"/>
<path class="st0" d="M266.5,290.7c-5.6-3.5-13-1.9-16.5,3.7c-0.1,0.1-7.6,11.2-26,11.2c-0.6,0-1.1,0-1.7,0
	c-16.9-0.6-24.1-10.9-24.4-11.3l0.1,0.2l0,0l0,0c-3.5-5.6-10.9-7.3-16.5-3.7c-5.6,3.5-7.3,10.9-3.7,16.5c0.3,0.5,3.9,6,11.4,11.5
	c7.5,5.5,18.9,10.8,34.8,10.8c31.7,0,45.7-21.4,46.2-22.3C273.7,301.7,272,294.3,266.5,290.7z"/>
<path class="st0" d="M890.9,300.1c-5.6-3.5-13-1.9-16.5,3.7c-0.1,0.1-7.6,11.2-26,11.2c-0.6,0-1.1,0-1.7,0
	c-16.9-0.6-24.1-10.9-24.4-11.3l0.1,0.2l0,0l0,0c-3.5-5.6-10.9-7.3-16.5-3.7c-5.6,3.5-7.3,10.9-3.7,16.5c0.3,0.5,3.9,6,11.4,11.5
	c7.5,5.5,18.9,10.8,34.8,10.8c31.7,0,45.7-21.4,46.2-22.3C898.2,311.1,896.5,303.7,890.9,300.1z"/>
</svg>
