<?xml version="1.0" encoding="utf-8"?>
<!-- Generator: Adobe Illustrator 26.3.1, SVG Export Plug-In . SVG Version: 6.00 Build 0)  -->
<svg version="1.1" id="Calque_1" xmlns="http://www.w3.org/2000/svg" xmlns:xlink="http://www.w3.org/1999/xlink" x="0px" y="0px"
	 viewBox="0 0 523.4 523.4" style="enable-background:new 0 0 523.4 523.4;" xml:space="preserve">
<style type="text/css">
	.st0{fill:#0A2D82;}
</style>
<g>
	<path class="st0" d="M431.9,479.9H302.6c-6.1,0-11-4.9-11-11v-51.8c0-15.4-12.6-28-28-28c-15.4,0-28,12.6-28,28v51.8
		c0,6.1-4.9,11-11,11H95.3c-6.1,0-11-4.9-11-11V343.8H16.9c-6.1,0-11-4.9-11-11s4.9-11,11-11h78.4c6.1,0,11,4.9,11,11v125.1h107.3
		v-40.8c0-27.6,22.4-50,50-50c27.6,0,50,22.4,50,50v40.8h107.3V332.8c0-6.1,4.9-11,11-11h54.7L273.2,69.9c-2.4-2.8-5.9-4.4-9.6-4.4
		c-3.7,0-7.2,1.6-9.6,4.4L103.5,247.6c-3.9,4.6-10.9,5.2-15.5,1.3c-4.6-3.9-5.2-10.9-1.3-15.5L237.2,55.7
		c6.6-7.8,16.2-12.2,26.4-12.2c0,0,0,0,0,0c10.2,0,19.8,4.5,26.4,12.2l228.7,270c2.8,3.3,3.4,7.8,1.6,11.7c-1.8,3.9-5.7,6.4-10,6.4
		h-67.4v125.1C442.9,475,438,479.9,431.9,479.9z"/>
</g>
</svg>
